<?xml version="1.0" standalone="no"?>
<!DOCTYPE svg PUBLIC "-//W3C//DTD SVG 20010904//EN"
 "http://www.w3.org/TR/2001/REC-SVG-20010904/DTD/svg10.dtd">
<svg version="1.0" xmlns="http://www.w3.org/2000/svg"
 width="800.000000pt" height="800.000000pt" viewBox="0 0 800.000000 800.000000"
 preserveAspectRatio="xMidYMid meet">
<metadata>
Created by potrace 1.14, written by Peter Selinger 2001-2017
</metadata>
<g transform="translate(0.000000,800.000000) scale(0.100000,-0.100000)"
fill="#000000" stroke="none">
<path d="M2047 7364 c-1 -1 -38 -5 -82 -9 -44 -3 -89 -8 -100 -11 -11 -2 -31
-6 -45 -8 -259 -43 -502 -182 -620 -356 -66 -97 -122 -224 -146 -331 -12 -53
-15 -68 -24 -119 -15 -90 -19 -178 -21 -538 -1 -376 -7 -429 -60 -538 -35 -74
-90 -126 -174 -165 -86 -41 -175 -55 -350 -58 -82 -1 -152 -4 -156 -6 -3 -3
-6 -117 -6 -255 l0 -250 56 0 c363 -2 476 -39 602 -198 24 -30 59 -126 73
-199 11 -61 15 -177 16 -528 1 -247 3 -466 5 -485 3 -19 7 -60 10 -90 10 -92
55 -258 91 -338 114 -251 322 -413 624 -485 62 -15 86 -19 210 -37 30 -4 148
-8 263 -9 l207 -2 0 60 c1 34 1 99 1 146 0 47 0 134 -1 193 l0 109 -125 1
c-143 1 -205 7 -289 28 -189 48 -308 181 -351 394 -4 19 -9 208 -11 420 -3
421 -10 667 -18 690 -3 8 -8 33 -11 55 -9 64 -43 163 -76 226 -81 152 -212
244 -413 289 -45 10 -70 19 -56 20 87 6 228 54 303 104 137 91 229 258 252
461 13 107 14 141 16 473 2 375 9 449 58 557 63 138 177 226 341 261 49 11
129 17 227 18 l153 1 0 58 c1 73 1 285 0 380 l0 74 -186 -1 c-102 -1 -186 -2
-187 -2z"/>
<path d="M5589 7269 c0 -128 0 -340 0 -381 l1 -33 154 -1 c244 -1 373 -40 476
-144 79 -79 127 -188 145 -329 3 -28 7 -198 8 -377 1 -328 10 -451 42 -574 65
-253 234 -403 505 -449 l45 -7 -55 -12 c-30 -7 -64 -14 -75 -16 -34 -7 -152
-54 -182 -72 -153 -97 -222 -222 -269 -484 -3 -19 -7 -251 -9 -515 -3 -426 -7
-541 -18 -595 -29 -138 -81 -233 -166 -303 -108 -88 -234 -119 -493 -120
l-108 0 0 -31 c-1 -53 -1 -358 -1 -420 l1 -58 238 5 c246 5 264 7 397 33 415
82 664 328 744 734 29 146 33 228 36 735 2 440 4 475 23 547 43 159 127 241
292 288 67 19 202 29 403 30 l27 0 0 254 0 254 -177 5 c-135 4 -194 10 -244
24 -124 37 -202 97 -257 201 -58 112 -65 162 -68 526 -1 181 -5 370 -9 420
-11 162 -59 355 -116 468 -123 242 -357 402 -680 462 -120 22 -187 27 -411 31
l-198 2 -1 -98z"/>
<path d="M3253 5598 c-34 -9 -80 -57 -87 -91 -3 -12 -10 -67 -16 -122 -12
-108 -18 -153 -25 -200 -2 -16 -7 -61 -10 -100 -4 -38 -8 -77 -10 -85 -2 -8
-7 -42 -10 -75 -4 -33 -9 -73 -11 -90 -3 -16 -7 -52 -9 -80 -3 -27 -9 -84 -15
-125 -5 -41 -12 -97 -15 -125 -6 -61 -13 -119 -20 -165 -2 -19 -7 -60 -10 -90
-4 -30 -8 -66 -10 -80 -2 -14 -7 -53 -10 -88 -4 -35 -8 -72 -10 -82 -2 -10 -7
-50 -10 -87 -4 -37 -9 -76 -11 -86 -2 -10 -6 -46 -9 -80 -3 -34 -8 -73 -10
-87 -2 -14 -7 -50 -10 -80 -4 -30 -8 -66 -10 -80 -2 -14 -9 -70 -15 -125 -6
-55 -13 -113 -15 -130 -2 -16 -7 -57 -10 -90 -3 -33 -8 -71 -10 -85 -2 -14 -7
-52 -10 -85 -3 -33 -8 -71 -10 -85 -3 -14 -7 -52 -11 -85 -3 -33 -8 -67 -9
-75 -2 -8 -6 -46 -10 -85 -4 -38 -9 -77 -10 -85 -2 -8 -6 -42 -10 -75 -3 -33
-8 -73 -10 -90 -22 -171 -15 -207 48 -245 43 -27 72 -25 206 10 63 17 124 32
135 34 12 3 109 27 216 55 107 28 203 51 213 51 9 0 17 -7 17 -17 0 -9 5 -30
10 -47 6 -17 37 -128 71 -246 33 -118 71 -253 84 -300 14 -47 52 -182 85 -300
33 -118 67 -235 74 -260 7 -25 35 -123 62 -219 75 -268 76 -268 377 -191 111
29 209 53 217 55 8 2 53 13 100 25 47 12 92 23 101 25 69 14 228 61 247 73 28
18 52 62 52 96 0 27 -5 47 -70 276 -23 80 -48 170 -57 200 -8 30 -26 93 -40
140 -13 47 -26 92 -28 100 -2 8 -34 121 -71 250 -96 339 -163 578 -167 604 -1
5 25 16 58 24 33 8 191 48 350 88 278 71 291 76 323 109 41 44 44 104 9 156
-13 19 -169 221 -347 449 -178 228 -336 431 -351 450 -15 19 -87 112 -160 206
-74 94 -145 186 -159 204 -14 18 -52 68 -85 110 -33 42 -71 91 -85 109 -14 18
-30 38 -35 44 -6 7 -40 50 -76 97 -59 77 -255 330 -315 405 -13 17 -51 66 -86
111 -35 44 -75 96 -90 115 -15 19 -77 98 -138 177 -61 78 -121 149 -133 157
-30 19 -66 24 -104 13z"/>
</g>
</svg>
